<svg width="36" height="37" viewBox="0 0 36 37" fill="none" xmlns="http://www.w3.org/2000/svg">
<g clip-path="url(#clip0)">
<path d="M22.3101 13.625C22.3101 13.625 24.4976 9.99998 23.4976 9.49998C22.4976 8.99998 20.9976 9.99998 20.9976 9.99998C20.9976 9.99998 21.9976 6.49998 19.9976 6.49998C17.9976 6.49998 17.4976 8.49998 17.4976 8.49998C17.4976 8.49998 16.7691 4.35198 13.9976 5.49998C12.2656 6.21748 11.4976 7.99998 13.9976 13" fill="#EA5A47"/>
<path d="M18.0001 32.5C18.0001 32.5 33.0001 32 25.5001 18C25.5001 18 23.5001 12.5 18.0001 12.5C16.4481 12.5 15.1751 12.8583 14.1356 13.395C11.4911 14.761 10.3591 17.282 10.0001 18C9.50009 19 2.00009 31.5 18.0001 32.5Z" fill="white"/>
<path d="M18.0001 22C18.0001 22 27.0001 21.5 18.0001 31C18.0001 31 9.00006 22 18.0001 22Z" fill="#F1B31C"/>
<path d="M24.0591 14.726C24.0591 14.726 26.5359 10.6216 25.4036 10.0555C24.2714 9.48939 22.573 10.6216 22.573 10.6216C22.573 10.6216 23.7053 6.65878 21.4408 6.65878C19.1763 6.65878 18.6102 8.92327 18.6102 8.92327C18.6102 8.92327 17.7853 4.22672 14.6473 5.52654C12.6863 6.33892 11.8167 8.35715 14.6473 14.0184" stroke="black" stroke-miterlimit="10" stroke-linecap="round" stroke-linejoin="round"/>
<path d="M14.1747 23.0763C14.8 23.0763 15.3069 22.5694 15.3069 21.9441C15.3069 21.3188 14.8 20.8118 14.1747 20.8118C13.5493 20.8118 13.0424 21.3188 13.0424 21.9441C13.0424 22.5694 13.5493 23.0763 14.1747 23.0763Z" fill="black"/>
<path d="M24.3648 23.0763C24.9901 23.0763 25.497 22.5694 25.497 21.9441C25.497 21.3188 24.9901 20.8118 24.3648 20.8118C23.7395 20.8118 23.2325 21.3188 23.2325 21.9441C23.2325 22.5694 23.7395 23.0763 24.3648 23.0763Z" fill="black"/>
<path d="M19.281 24.2086C19.281 24.2086 29.4712 23.6425 19.281 34.3988C19.281 34.3988 9.09079 24.2086 19.281 24.2086Z" stroke="black" stroke-miterlimit="10" stroke-linecap="round" stroke-linejoin="round"/>
<path d="M10.7779 19.6796C10.7779 19.6796 13.0423 13.4523 19.2697 13.4523C25.497 13.4523 27.7615 19.6796 27.7615 19.6796C36.2534 35.5311 19.2697 36.0972 19.2697 36.0972C19.2697 36.0972 2.28603 35.5311 10.7779 19.6796Z" stroke="black" stroke-miterlimit="10" stroke-linecap="round" stroke-linejoin="round"/>
</g>
<defs>
<clipPath id="clip0">
<rect width="36" height="36" fill="white" transform="translate(0.00012207 0.5)"/>
</clipPath>
</defs>
</svg>
