<svg width="31" height="31" viewBox="0 0 31 31" fill="none" xmlns="http://www.w3.org/2000/svg">
<path d="M18.0157 22.6615L19.4465 23.3862C20.9829 23.894 21.7291 20.5939 19.2591 19.4914L18.478 18.9673L19.7833 19.4914C21.2533 20.1822 22.9673 16.8926 19.9872 15.4516L18.8014 15.2173L20.8811 15.4516C22.1751 16.2162 22.4065 12.9171 20.3773 11.9546L13.7578 10.6302C14.2266 6.09897 14.5912 3.1823 11.2318 2.58334C10.2059 2.42709 8.94013 2.58334 9.20055 3.62501C10.5547 9.71876 7.89846 13.0434 7.1603 13.8145C4.16092 16.8139 4.16092 21.6768 7.1603 24.6762C8.46267 25.8993 9.7268 25.8125 12.8985 25.8125C13.4974 25.8125 21.0654 27.6795 21.0654 27.6795C23.93 28.4347 25.5021 25.3576 23.575 24.7066L22.9375 24.2696" fill="#FCEA2B"/>
<path d="M19.6025 15.7272C22.0427 16.3418 23.4688 12.5704 19.942 11.8395L13.7578 10.6302C14.2266 6.09897 14.5912 3.1823 11.2318 2.58334C10.2059 2.42709 8.94013 2.58334 9.20055 3.62501C10.5547 9.71876 7.89846 13.0434 7.1603 13.8145C4.16092 16.8139 4.16092 21.6768 7.1603 24.6762C8.46267 25.8993 9.7268 25.8125 12.8985 25.8125C13.4974 25.8125 21.4954 27.7839 21.4954 27.7839C24.36 28.5391 25.2331 25.4853 23.306 24.8343L21.4954 24.1814" stroke="black" stroke-width="2" stroke-linecap="round" stroke-linejoin="round"/>
<path d="M19.259 19.4915C21.6863 20.1299 22.6185 16.4071 19.6024 15.7272" stroke="black" stroke-width="2" stroke-linecap="round" stroke-linejoin="round"/>
<path d="M18.7211 23.3244C21.1492 23.9791 21.7162 20.1597 19.259 19.4914" stroke="black" stroke-width="2" stroke-linecap="round" stroke-linejoin="round"/>
<path d="M18.7212 23.3244L16.3491 22.6648" stroke="black" stroke-width="2" stroke-miterlimit="10" stroke-linecap="round" stroke-linejoin="round"/>
<path d="M19.2591 19.4915L17.1643 18.8947" stroke="black" stroke-width="2" stroke-miterlimit="10" stroke-linecap="round" stroke-linejoin="round"/>
<path d="M19.6025 15.7272L17.8801 15.3756" stroke="black" stroke-width="2" stroke-miterlimit="10" stroke-linecap="round" stroke-linejoin="round"/>
</svg>
